<svg class="typst-doc" viewBox="0 0 595.2755905511812 841.8897637795276" width="595.2755905511812pt" height="841.8897637795276pt" xmlns="http://www.w3.org/2000/svg" xmlns:xlink="http://www.w3.org/1999/xlink" xmlns:h5="http://www.w3.org/1999/xhtml">
    <path class="typst-shape" fill="url(#g3AE1CFB76816A0AC005BEF996C7B5801)" fill-rule="nonzero" d="M 0 0v 841.8898 h 595.2756 v -841.8898 Z "/>
    <g>
        <g class="typst-group">
            <g>
                <path class="typst-shape" fill="url(#g450BF73CF6358A4BBDB628BAAB80B86F)" fill-rule="nonzero" d="M 0 0v 841.8898 h 595.2756 v -841.8898 Z "/>
                <g class="typst-text" transform="matrix(1 0 0 -1 224.68029527559054 412.32088188976377)">
                    <use xlink:href="#g7F6F83998149383320D2065779316383" x="0" y="0" fill="#ffffff" fill-rule="nonzero"/>
                    <use xlink:href="#g350DBAD3BE77E883A4271099DD0848AC" x="45.969" y="0" fill="#ffffff" fill-rule="nonzero"/>
                    <use xlink:href="#gF71FF7B984C2F39EA9BCAC0D7A82A7CF" x="66.83600000000001" y="0" fill="#ffffff" fill-rule="nonzero"/>
                    <use xlink:href="#g995EE266636416C8FC5ABD0AD5A750B7" x="91.168" y="0" fill="#ffffff" fill-rule="nonzero"/>
                    <use xlink:href="#gA8191BA900F266AC770EC849A9420C9B" x="111.49600000000001" y="0" fill="#ffffff" fill-rule="nonzero"/>
                </g>
                <g class="typst-text" transform="matrix(1 0 0 -1 246.10829527559054 480.2348818897638)">
                    <use xlink:href="#gE9F5F915EE32DAEFB5DCC9B0C5FA464" x="0" y="0" fill="#ffffff" fill-rule="nonzero"/>
                    <use xlink:href="#g596D251B69A5BF684BE8AB411659A022" x="16.005" y="0" fill="#ffffff" fill-rule="nonzero"/>
                    <use xlink:href="#g5EF095496A21110EF9663E73EC077940" x="33.528000000000006" y="0" fill="#ffffff" fill-rule="nonzero"/>
                    <use xlink:href="#g606D87FBD66669CBEA2B1DB0BCECB072" x="49.797000000000004" y="0" fill="#ffffff" fill-rule="nonzero"/>
                    <use xlink:href="#g384652D24EAC6A644FF45667DD3E7EB2" x="60.22500000000001" y="0" fill="#ffffff" fill-rule="nonzero"/>
                    <use xlink:href="#g606D87FBD66669CBEA2B1DB0BCECB072" x="69.168" y="0" fill="#ffffff" fill-rule="nonzero"/>
                    <use xlink:href="#g7BA77CE25A0263B21A1530FD65A24A44" x="79.596" y="0" fill="#ffffff" fill-rule="nonzero"/>
                    <use xlink:href="#g4AF3B4CF059F4D7C683AD7F3B77482B2" x="88.308" y="0" fill="#ffffff" fill-rule="nonzero"/>
                </g>
            </g>
        </g>
    </g>
    <defs id="glyph">
        <symbol id="g7F6F83998149383320D2065779316383" overflow="visible">
            <path d="M 0 0m 26.95 9.394 v 29.413998 c 0 4.9280014 0.76999855 7.854 3.5419998 7.854 h 1.6940002 c 5.7749977 0 9.393997 -2.001999 10.702999 -7.9309998 c 0.8470001 0 1.9249992 0.076999664 2.618 0.38500214 c -0.53900146 3.5419998 -0.9239998 7.468998 -1.0009995 10.933998 c 0 0.076999664 -0.15399933 0.230999 -0.230999 0.230999 c -2.618 -0.230999 -11.165001 -0.6159973 -17.248001 -0.6159973 h -6.6219997 c -5.929001 0 -15.015001 0.38499832 -17.941 0.6159973 c -0.15400004 0 -0.3080001 -0.15399933 -0.3080001 -0.230999 c -0.30799985 -3.4650002 -1.078 -7.468998 -1.925 -11.165001 c 0.77000004 -0.30799866 1.694 -0.38499832 2.618 -0.38499832 c 1.54 6.16 5.082 8.161999 10.164 8.161999 h 3.7729998 c 2.849001 0 3.6190014 -2.9259987 3.6190014 -7.6229973 v -29.645 c 0 -6.391 -1.309 -6.776 -7.469001 -7.007 c -0.4619999 -0.46200013 -0.4619999 -2.079 0 -2.5410001 c 3.7729998 0.077 7.7 0.154 10.78 0.154 c 2.9260006 0 6.8530006 -0.077 10.702999 -0.154 c 0.4620018 0.462 0.4620018 2.079 0 2.5410001 c -6.159998 0.23099995 -7.468998 0.61599994 -7.468998 7.007 Z "/>
        </symbol>
        <symbol id="g350DBAD3BE77E883A4271099DD0848AC" overflow="visible">
            <path d="M 0 0m 13.937 9.394 v 15.322999 c 0 3.8500004 0.3079996 8.778 0.3079996 8.778 c 0 0.30800247 -0.38500023 0.53900146 -1.0010004 0.53900146 c -2.1559992 -0.8470001 -5.235999 -1.5400009 -10.549 -2.2329998 c -0.15400004 -0.4619999 0 -1.6940002 0.15400004 -2.1560001 c 4.235 -0.38500023 5.005 -0.8470001 5.005 -5.236 v -15.015 c 0 -6.391 -0.8470001 -6.6219997 -5.544 -7.007 c -0.4619999 -0.46200013 -0.4619999 -2.079 0 -2.5410001 c 2.541 0.077 5.544 0.154 8.624001 0.154 c 3.08 0 6.0060005 -0.077 8.546999 -0.154 c 0.4620018 0.462 0.4620018 2.079 0 2.5410001 c -4.6969986 0.30799985 -5.5439987 0.61599994 -5.5439987 7.007 Z m -7.0070004 36.729 c 0 -2.0020027 1.848 -4.0040016 3.6960006 -4.0040016 c 2.1559992 0 4.0039997 2.0789986 4.0039997 3.6959991 c 0 1.8479996 -1.6170006 4.0040016 -3.696 4.0040016 c -1.8480005 0 -4.004 -1.8479996 -4.004 -3.6959991 Z "/>
        </symbol>
        <symbol id="gF71FF7B984C2F39EA9BCAC0D7A82A7CF" overflow="visible">
            <path d="M 0 0m 3.3109999 33.033 c -1.0779998 0 -1.3859999 -0.9239998 -1.3859999 -1.5400009 v -1.0009995 c 0 -0.38500023 0.07700014 -0.4619999 0.385 -0.4619999 h 4.543 v -23.177 c 0 -5.467 2.3869996 -7.623 5.9289994 -7.623 c 3.5419998 0 7.392 1.694 10.395 5.082 c -0.15399933 0.77 -0.6159992 1.2320004 -1.3859997 1.309 c -2.0020008 -1.54 -4.3120003 -2.156 -6.314 -2.156 c -2.0790005 0 -2.5410004 2.3100002 -2.5410004 7.0839996 v 19.481 h 8.008 c 0.77000046 0 1.8479996 0.30799866 1.8479996 1.0009995 v 1.539999 c 0 0.30800247 -0.230999 0.4620018 -0.6159992 0.4620018 h -9.240001 v 3.0029984 c 0 5.005001 0.3079996 8.084999 0.3079996 8.084999 c 0 0.4620018 -0.23099995 0.6930008 -0.6159992 0.6930008 c -0.30800056 0 -1.0010004 -0.30799866 -1.6940002 -0.6930008 c -0.8470001 -0.461998 -1.6169996 -0.8470001 -2.618 -1.0779991 c -0.9239998 -0.30799866 -1.6940002 -0.53899765 -1.6940002 -1.0779991 c 0 -0.9239998 0.23100042 -0.38500214 0.23100042 -8.931999 Z "/>
        </symbol>
        <symbol id="g995EE266636416C8FC5ABD0AD5A750B7" overflow="visible">
            <path d="M 0 0m 7.315 9.394 c 0 -6.391 -0.8470001 -6.776 -5.544 -7.007 c -0.462 -0.46200013 -0.462 -2.079 0 -2.5410001 c 2.6950002 0.077 5.544 0.154 8.624 0.154 c 3.0800009 0 6.0059996 -0.077 8.547 -0.154 c 0.4619999 0.462 0.4619999 2.079 0 2.5410001 c -4.6969995 0.23099995 -5.5439997 0.61599994 -5.5439997 7.007 v 35.496998 c 0 5.005001 0.30800056 8.084999 0.30800056 8.084999 c 0 0.53900146 -0.30800056 0.77000046 -1.0010004 0.77000046 c -1.9250002 -0.77000046 -7.7 -1.8479996 -10.78 -2.0789986 c -0.15399992 -0.6160011 0 -1.8479996 0.46200013 -2.3100014 c 4.466 -0.30799866 4.928 -0.53899765 4.928 -6.313999 Z "/>
        </symbol>
        <symbol id="gA8191BA900F266AC770EC849A9420C9B" overflow="visible">
            <path d="M 0 0m 29.722 7.161 c -2.849001 -2.9259996 -5.0820007 -4.158 -9.548 -4.158 c -2.7719994 0 -6.0059996 1.6169999 -8.393 5.5439997 c -1.54 2.5410004 -2.4639997 6.083 -2.4639997 10.549001 l 20.481998 -0.15400124 c 0.9239998 0 1.4629993 0.4619999 1.4629993 1.309 c 0 6.4680004 -2.3099995 13.397999 -13.012999 13.397999 c -6.6990004 0 -15.400001 -6.390999 -15.400001 -18.094997 c 0 -4.3120003 1.0780001 -8.469999 3.619 -11.396 c 2.6179996 -3.08 6.237 -4.928 11.781 -4.928 c 5.8519993 0 10.01 2.695 13.09 6.699 c -0.2310009 0.77 -0.6930008 1.1550002 -1.6170006 1.2319999 Z m -20.174 14.553001 c 1.4629993 8.700998 6.8529987 9.393999 8.701 9.393999 c 2.9259987 0 6.390999 -1.6170006 6.390999 -8.084999 c 0 -0.6930008 -0.30799866 -1.078001 -1.1549988 -1.078001 Z "/>
        </symbol>
        <symbol id="gE9F5F915EE32DAEFB5DCC9B0C5FA464" overflow="visible">
            <path d="M 0 0m 13.035 20.823 c -1.9139996 0.26399994 -1.8479996 0.89100075 -5.082 0.89100075 c -3.3330002 0 -6.27 -2.2110004 -6.27 -5.7090015 c 0 -3.4649992 2.8709998 -5.048999 5.775 -6.1709995 c 1.9799995 -0.7589998 4.422 -1.6829996 4.422 -4.917 c 0 -2.6729999 -1.4850006 -4.059 -4.125 -4.059 c -3.0690002 0 -5.049 1.4189999 -5.775 4.6860003 c -0.42900002 0.13199997 -0.75900006 0.065999985 -1.089 -0.09899998 c 0.13200003 -2.5410001 0.264 -3.3990002 0.66 -5.0160003 c 2.079 0 3.0029998 -0.75899994 5.94 -0.75899994 c 1.4849997 0 2.9039993 0.36299998 4.059 1.089 c 1.9139996 1.188 3.1019993 3.201 3.1019993 5.313 c 0 3.4979997 -2.6399994 5.0490003 -5.3459997 6.072 c -1.98 0.72599983 -5.2799997 1.9799995 -5.2799997 4.752 c 0 1.8479996 1.6830001 3.6959991 3.63 3.6959991 c 3.2010002 0 4.224 -2.0459995 4.884 -4.223999 c 0.36299992 -0.065999985 0.7919998 -0.033000946 1.0889997 0.19799995 c -0.13199997 1.5839996 -0.26399994 2.5079994 -0.59399986 4.257 Z "/>
        </symbol>
        <symbol id="g596D251B69A5BF684BE8AB411659A022" overflow="visible">
            <path d="M 0 0m 7.161 -0.32999998 c 1.2870002 0 2.8379998 0.65999997 4.4550004 1.98 c 0.16499996 0.13199997 0.4619999 0.19800007 0.4949999 -0.032999992 c 0.09899998 -0.825 0.36299992 -1.947 0.36299992 -1.947 c 0.26399994 -0.09900001 0.4289999 -0.066000015 0.62699986 0 c 0.72599983 0.594 1.8810005 1.089 3.894001 1.3199999 c 0.19799995 0.19799995 0.19799995 0.69299996 0 0.89100003 c -2.1120005 0.16499996 -2.4090014 0.79200006 -2.4090014 2.409 v 6.3360004 c 0 0.9899998 0.13199997 3.3989992 0.13199997 3.3989992 c 0 0.09899998 -0.09899998 0.19799995 -0.26399994 0.19799995 c -0.16499996 -0.032999992 -0.65999985 -0.065999985 -1.1549997 -0.065999985 c -1.0559998 0 -2.2439995 0.032999992 -3.3660002 0.065999985 c -0.19799995 -0.19799995 -0.19799995 -0.8909998 0 -1.0889997 c 1.6170006 -0.09899998 2.0460005 -0.4949999 2.0460005 -2.6730003 v -6.3689995 c 0 -0.6270001 -0.065999985 -0.89100003 -0.5279999 -1.287 c -1.2210007 -1.0560001 -2.4750004 -1.5840001 -3.3000002 -1.5840001 c -0.99000025 0 -2.6399999 0.462 -2.6399999 3.399 v 6.0060005 c 0 0.9899998 0.13199997 3.3989992 0.13199997 3.3989992 c 0 0.09899998 -0.09899998 0.19799995 -0.26399994 0.19799995 c -0.16500044 -0.032999992 -0.6600003 -0.065999985 -1.1550002 -0.065999985 c -1.056 0 -2.244 0.032999992 -3.366 0.065999985 c -0.19800001 -0.19799995 -0.19800001 -0.8909998 0 -1.0889997 c 1.5839999 -0.13199997 2.046 -0.4949999 2.046 -2.6400003 v -6.3359995 c 0 -2.277 0.99 -4.488 4.257 -4.488 Z "/>
        </symbol>
        <symbol id="g5EF095496A21110EF9663E73EC077940" overflow="visible">
            <path d="M 0 0m 5.511 13.002 c -0.19799995 -0.19799995 -0.3300004 -0.13199997 -0.3300004 0.16499996 v 6.0720005 c 0 2.1450005 0.13200045 3.4650002 0.13200045 3.4650002 c 0 0.230999 -0.13200045 0.32999992 -0.42900038 0.32999992 c -0.8249998 -0.32999992 -3.2999997 -0.7919998 -4.62 -0.89100075 c -0.066 -0.26399994 0 -0.7919998 0.19800001 -0.9899998 c 0.09899998 0 0.19799995 0 0.297 0 c 1.4519999 -0.09900093 1.8149998 -0.09900093 1.8149998 -2.7059994 v -16.104 c 0 -1.287 -0.032999992 -1.8809999 -0.13199997 -2.343 c 0.16499996 -0.264 0.33000016 -0.396 0.7260001 -0.396 c 0.19799995 0.198 0.5280001 0.495 0.79200006 0.792 c 0.32999992 0.396 0.5279999 0.396 0.8909998 0.09900001 c 0.7590003 -0.627 1.7490001 -0.825 2.9040003 -0.825 c 3.3660002 0 7.293 3.069 7.293 8.316 c 0 4.026 -2.9700003 6.5009995 -5.8410006 6.5009995 c -1.4189997 0 -2.6729999 -0.5609999 -3.6959996 -1.4849997 Z m 0.23099995 -1.0229998 c 0.8579998 0.7589998 1.848 1.0559998 2.8049998 1.0559998 c 2.0129995 0 3.663 -2.4419994 3.663 -5.6429996 c 0 -3.7620003 -1.5179996 -6.6000004 -4.653 -6.6000004 c -1.0230002 0 -1.7160001 0.726 -2.3760004 1.5509999 v 8.25 c 0 0.69299984 0.13200045 1.0229998 0.56100035 1.3859997 Z "/>
        </symbol>
        <symbol id="g606D87FBD66669CBEA2B1DB0BCECB072" overflow="visible">
            <path d="M 0 0m 1.419 14.157 c -0.462 0 -0.59400004 -0.3959999 -0.59400004 -0.65999985 v -0.4289999 c 0 -0.16499996 0.032999992 -0.19799995 0.16500002 -0.19799995 h 1.947 v -9.933 c 0 -2.343 1.023 -3.267 2.5410001 -3.267 c 1.5179996 0 3.1679997 0.72599995 4.4549994 2.178 c -0.065999985 0.32999992 -0.26399994 0.5279999 -0.59399986 0.5609999 c -0.8579998 -0.65999997 -1.8479996 -0.9239999 -2.7059999 -0.9239999 c -0.8909998 0 -1.0889997 0.9899999 -1.0889997 3.0359998 v 8.349 h 3.4319997 c 0.32999992 0 0.7919998 0.13199997 0.7919998 0.4289999 v 0.65999985 c 0 0.13199997 -0.09899998 0.19799995 -0.26399994 0.19799995 h -3.9599996 v 1.2870007 c 0 2.1450005 0.13199997 3.4650002 0.13199997 3.4650002 c 0 0.19799995 -0.09899998 0.29699898 -0.26399994 0.29699898 c -0.13200045 0 -0.42900038 -0.13199997 -0.7260003 -0.29699898 c -0.36299992 -0.19799995 -0.69299984 -0.36300087 -1.122 -0.4619999 c -0.3959999 -0.13199997 -0.72599983 -0.2310009 -0.72599983 -0.4619999 c 0 -0.3959999 0.09899998 -0.16500092 0.09899998 -3.828001 Z "/>
        </symbol>
        <symbol id="g384652D24EAC6A644FF45667DD3E7EB2" overflow="visible">
            <path d="M 0 0m 5.973 4.026 v 6.5670004 c 0 1.6499996 0.13199997 3.7619991 0.13199997 3.7619991 c 0 0.13199997 -0.16499996 0.23099995 -0.4289999 0.23099995 c -0.92400026 -0.36299992 -2.2440002 -0.65999985 -4.521 -0.9569998 c -0.065999985 -0.19799995 0 -0.72599983 0.065999985 -0.9239998 c 1.815 -0.16499996 2.145 -0.36299992 2.145 -2.2440004 v -6.4349995 c 0 -2.739 -0.36299992 -2.838 -2.376 -3.003 c -0.19800001 -0.19800001 -0.19800001 -0.89100003 0 -1.089 c 1.089 0.033 2.376 0.066 3.6959999 0.066 c 1.3200002 0 2.574 -0.033 3.663 -0.066 c 0.19799995 0.198 0.19799995 0.891 0 1.089 c -2.013 0.13199997 -2.376 0.26399994 -2.376 3.003 Z m -3.003 15.741 c 0 -0.8579998 0.79200006 -1.7159996 1.5839999 -1.7159996 c 0.92400026 0 1.7160001 0.89099884 1.7160001 1.5839996 c 0 0.7919998 -0.69299984 1.7159996 -1.5840001 1.7159996 c -0.7919998 0 -1.7159998 -0.7919998 -1.7159998 -1.5839996 Z "/>
        </symbol>
        <symbol id="g7BA77CE25A0263B21A1530FD65A24A44" overflow="visible">
            <path d="M 0 0m 3.135 4.026 c 0 -2.739 -0.36299992 -2.904 -2.376 -3.003 c -0.19800001 -0.19800001 -0.19800001 -0.89100003 0 -1.089 c 1.155 0.033 2.376 0.066 3.6959999 0.066 c 1.3200002 0 2.574 -0.033 3.663 -0.066 c 0.19799995 0.198 0.19799995 0.891 0 1.089 c -2.013 0.09899998 -2.376 0.26399994 -2.376 3.003 v 15.213 c 0 2.1450005 0.13199997 3.4650002 0.13199997 3.4650002 c 0 0.230999 -0.13199997 0.32999992 -0.4289999 0.32999992 c -0.8250003 -0.32999992 -3.3000002 -0.7919998 -4.6200004 -0.89100075 c -0.065999985 -0.26399994 0 -0.7919998 0.19800001 -0.9899998 c 1.914 -0.13199997 2.112 -0.2310009 2.112 -2.7059994 Z "/>
        </symbol>
        <symbol id="g4AF3B4CF059F4D7C683AD7F3B77482B2" overflow="visible">
            <path d="M 0 0m 12.738 3.069 c -1.2209997 -1.2540001 -2.1780005 -1.7820001 -4.092 -1.7820001 c -1.1879997 0 -2.574 0.6930001 -3.5970001 2.376 c -0.65999985 1.089 -1.0559998 2.607 -1.0559998 4.521 l 8.778 -0.065999985 c 0.3959999 0 0.62699986 0.19799995 0.62699986 0.5609999 c 0 2.7720003 -0.9899998 5.7419996 -5.5769997 5.7419996 c -2.8710003 0 -6.6000004 -2.7389994 -6.6000004 -7.7549996 c 0 -1.848 0.462 -3.6299999 1.5510001 -4.884 c 1.122 -1.3199999 2.673 -2.112 5.049 -2.112 c 2.5079994 0 4.29 1.155 5.6099997 2.8709998 c -0.09899998 0.33000016 -0.29699993 0.49500012 -0.69299984 0.5280001 Z m -8.646 6.2369995 c 0.62699986 3.729 2.9369998 4.026 3.729 4.026 c 1.2539997 0 2.7389994 -0.69299984 2.7389994 -3.4650002 c 0 -0.29699993 -0.13199997 -0.4619999 -0.4949999 -0.4619999 Z "/>
        </symbol>
    </defs>
    <defs id="gradients">
        <radialGradient id="fAD08C02B11532FFE9262487462C89256" spreadMethod="pad" gradientUnits="userSpaceOnUse" cx="1" cy="0" r="1" fx="1" fy="0" fr="0">
            <stop offset="0%" stop-color="#7035b4"/>
            <stop offset="0.79%" stop-color="#6f35b3"/>
            <stop offset="1.57%" stop-color="#6e34b1"/>
            <stop offset="2.36%" stop-color="#6d34b0"/>
            <stop offset="3.15%" stop-color="#6c34af"/>
            <stop offset="3.94%" stop-color="#6b33ad"/>
            <stop offset="4.72%" stop-color="#6a33ac"/>
            <stop offset="5.51%" stop-color="#6a33aa"/>
            <stop offset="6.3%" stop-color="#6932a9"/>
            <stop offset="7.09%" stop-color="#6832a8"/>
            <stop offset="7.87%" stop-color="#6732a6"/>
            <stop offset="8.66%" stop-color="#6631a5"/>
            <stop offset="9.45%" stop-color="#6531a4"/>
            <stop offset="10.24%" stop-color="#6431a2"/>
            <stop offset="11.02%" stop-color="#6330a1"/>
            <stop offset="11.81%" stop-color="#6230a0"/>
            <stop offset="12.6%" stop-color="#61309e"/>
            <stop offset="13.39%" stop-color="#602f9d"/>
            <stop offset="14.17%" stop-color="#602f9c"/>
            <stop offset="14.96%" stop-color="#5f2f9a"/>
            <stop offset="15.75%" stop-color="#5e2e99"/>
            <stop offset="16.54%" stop-color="#5d2e97"/>
            <stop offset="17.32%" stop-color="#5c2e96"/>
            <stop offset="18.11%" stop-color="#5b2d95"/>
            <stop offset="18.9%" stop-color="#5a2d93"/>
            <stop offset="19.69%" stop-color="#592d92"/>
            <stop offset="20.47%" stop-color="#582c91"/>
            <stop offset="21.26%" stop-color="#572c90"/>
            <stop offset="22.05%" stop-color="#572c8e"/>
            <stop offset="22.83%" stop-color="#562c8d"/>
            <stop offset="23.62%" stop-color="#552b8c"/>
            <stop offset="24.41%" stop-color="#542b8a"/>
            <stop offset="25.2%" stop-color="#532b89"/>
            <stop offset="25.98%" stop-color="#522a88"/>
            <stop offset="26.77%" stop-color="#512a86"/>
            <stop offset="27.56%" stop-color="#502a85"/>
            <stop offset="28.35%" stop-color="#4f2984"/>
            <stop offset="29.13%" stop-color="#4f2982"/>
            <stop offset="29.92%" stop-color="#4e2981"/>
            <stop offset="30.71%" stop-color="#4d2880"/>
            <stop offset="31.5%" stop-color="#4c287f"/>
            <stop offset="32.28%" stop-color="#4b287d"/>
            <stop offset="33.07%" stop-color="#4a277c"/>
            <stop offset="33.86%" stop-color="#49277b"/>
            <stop offset="34.65%" stop-color="#482779"/>
            <stop offset="35.43%" stop-color="#482678"/>
            <stop offset="36.22%" stop-color="#472677"/>
            <stop offset="37.01%" stop-color="#462676"/>
            <stop offset="37.8%" stop-color="#452574"/>
            <stop offset="38.58%" stop-color="#442573"/>
            <stop offset="39.37%" stop-color="#432572"/>
            <stop offset="40.16%" stop-color="#422470"/>
            <stop offset="40.94%" stop-color="#42246f"/>
            <stop offset="41.73%" stop-color="#41246e"/>
            <stop offset="42.52%" stop-color="#40236d"/>
            <stop offset="43.31%" stop-color="#3f236b"/>
            <stop offset="44.09%" stop-color="#3e236a"/>
            <stop offset="44.88%" stop-color="#3d2269"/>
            <stop offset="45.67%" stop-color="#3d2268"/>
            <stop offset="46.46%" stop-color="#3c2266"/>
            <stop offset="47.24%" stop-color="#3b2165"/>
            <stop offset="48.03%" stop-color="#3a2164"/>
            <stop offset="48.82%" stop-color="#392163"/>
            <stop offset="49.61%" stop-color="#382061"/>
            <stop offset="50.39%" stop-color="#382060"/>
            <stop offset="51.18%" stop-color="#37205f"/>
            <stop offset="51.97%" stop-color="#361f5e"/>
            <stop offset="52.76%" stop-color="#351f5d"/>
            <stop offset="53.54%" stop-color="#341f5b"/>
            <stop offset="54.33%" stop-color="#331e5a"/>
            <stop offset="55.12%" stop-color="#331e59"/>
            <stop offset="55.91%" stop-color="#321e58"/>
            <stop offset="56.69%" stop-color="#311d56"/>
            <stop offset="57.48%" stop-color="#301d55"/>
            <stop offset="58.27%" stop-color="#2f1d54"/>
            <stop offset="59.06%" stop-color="#2e1c53"/>
            <stop offset="59.84%" stop-color="#2e1c52"/>
            <stop offset="60.63%" stop-color="#2d1b50"/>
            <stop offset="61.42%" stop-color="#2c1b4f"/>
            <stop offset="62.2%" stop-color="#2b1b4e"/>
            <stop offset="62.99%" stop-color="#2a1a4d"/>
            <stop offset="63.78%" stop-color="#2a1a4c"/>
            <stop offset="64.57%" stop-color="#291a4a"/>
            <stop offset="65.35%" stop-color="#281949"/>
            <stop offset="66.14%" stop-color="#271948"/>
            <stop offset="66.93%" stop-color="#261947"/>
            <stop offset="67.72%" stop-color="#261846"/>
            <stop offset="68.5%" stop-color="#251845"/>
            <stop offset="69.29%" stop-color="#241843"/>
            <stop offset="70.08%" stop-color="#231742"/>
            <stop offset="70.87%" stop-color="#221741"/>
            <stop offset="71.65%" stop-color="#221740"/>
            <stop offset="72.44%" stop-color="#21163f"/>
            <stop offset="73.23%" stop-color="#20163e"/>
            <stop offset="74.02%" stop-color="#1f163d"/>
            <stop offset="74.8%" stop-color="#1f153b"/>
            <stop offset="75.59%" stop-color="#1e153a"/>
            <stop offset="76.38%" stop-color="#1d1539"/>
            <stop offset="77.17%" stop-color="#1c1438"/>
            <stop offset="77.95%" stop-color="#1c1437"/>
            <stop offset="78.74%" stop-color="#1b1436"/>
            <stop offset="79.53%" stop-color="#1a1335"/>
            <stop offset="80.31%" stop-color="#191334"/>
            <stop offset="81.1%" stop-color="#181332"/>
            <stop offset="81.89%" stop-color="#181231"/>
            <stop offset="82.68%" stop-color="#171230"/>
            <stop offset="83.46%" stop-color="#16112f"/>
            <stop offset="84.25%" stop-color="#15112e"/>
            <stop offset="85.04%" stop-color="#15112d"/>
            <stop offset="85.83%" stop-color="#14102c"/>
            <stop offset="86.61%" stop-color="#13102b"/>
            <stop offset="87.4%" stop-color="#12102a"/>
            <stop offset="88.19%" stop-color="#120f29"/>
            <stop offset="88.98%" stop-color="#110f28"/>
            <stop offset="89.76%" stop-color="#100f26"/>
            <stop offset="90.55%" stop-color="#0f0e25"/>
            <stop offset="91.34%" stop-color="#0f0e24"/>
            <stop offset="92.13%" stop-color="#0e0e23"/>
            <stop offset="92.91%" stop-color="#0d0d22"/>
            <stop offset="93.7%" stop-color="#0d0d21"/>
            <stop offset="94.49%" stop-color="#0c0d20"/>
            <stop offset="95.28%" stop-color="#0b0c1f"/>
            <stop offset="96.06%" stop-color="#0a0c1e"/>
            <stop offset="96.85%" stop-color="#0a0b1d"/>
            <stop offset="97.64%" stop-color="#090b1c"/>
            <stop offset="98.43%" stop-color="#080b1b"/>
            <stop offset="99.21%" stop-color="#080a1a"/>
            <stop offset="100%" stop-color="#070a19"/>
        </radialGradient>
        <radialGradient id="fFD1DA1080904BCCB5086B572EABA96C8" spreadMethod="pad" gradientUnits="userSpaceOnUse" cx="1" cy="1" r="1" fx="1" fy="1" fr="0">
            <stop offset="0%" stop-color="#6e89be"/>
            <stop offset="0.79%" stop-color="#6d88bcfd"/>
            <stop offset="1.57%" stop-color="#6c86bafb"/>
            <stop offset="2.36%" stop-color="#6a85b8f9"/>
            <stop offset="3.15%" stop-color="#6983b6f7"/>
            <stop offset="3.94%" stop-color="#6882b4f5"/>
            <stop offset="4.72%" stop-color="#6780b2f3"/>
            <stop offset="5.51%" stop-color="#667fb0f1"/>
            <stop offset="6.3%" stop-color="#647daeef"/>
            <stop offset="7.09%" stop-color="#637caced"/>
            <stop offset="7.87%" stop-color="#627aaaeb"/>
            <stop offset="8.66%" stop-color="#6179a8e9"/>
            <stop offset="9.45%" stop-color="#6077a6e7"/>
            <stop offset="10.24%" stop-color="#5e76a4e5"/>
            <stop offset="11.02%" stop-color="#5d74a2e3"/>
            <stop offset="11.81%" stop-color="#5c73a0e1"/>
            <stop offset="12.6%" stop-color="#5b729edf"/>
            <stop offset="13.39%" stop-color="#5a709cdd"/>
            <stop offset="14.17%" stop-color="#586f9bdb"/>
            <stop offset="14.96%" stop-color="#576d99d9"/>
            <stop offset="15.75%" stop-color="#566c97d7"/>
            <stop offset="16.54%" stop-color="#556a95d5"/>
            <stop offset="17.32%" stop-color="#546993d3"/>
            <stop offset="18.11%" stop-color="#536891d1"/>
            <stop offset="18.9%" stop-color="#51668fcf"/>
            <stop offset="19.69%" stop-color="#50658dcd"/>
            <stop offset="20.47%" stop-color="#4f638bcb"/>
            <stop offset="21.26%" stop-color="#4e6289c9"/>
            <stop offset="22.05%" stop-color="#4d6187c7"/>
            <stop offset="22.83%" stop-color="#4c5f86c5"/>
            <stop offset="23.62%" stop-color="#4b5e84c3"/>
            <stop offset="24.41%" stop-color="#495c82c1"/>
            <stop offset="25.2%" stop-color="#485b80bf"/>
            <stop offset="25.98%" stop-color="#475a7ebd"/>
            <stop offset="26.77%" stop-color="#46587cbb"/>
            <stop offset="27.56%" stop-color="#45577ab9"/>
            <stop offset="28.35%" stop-color="#445678b7"/>
            <stop offset="29.13%" stop-color="#435477b5"/>
            <stop offset="29.92%" stop-color="#415375b3"/>
            <stop offset="30.71%" stop-color="#405173b1"/>
            <stop offset="31.5%" stop-color="#3f5071af"/>
            <stop offset="32.28%" stop-color="#3e4f6fad"/>
            <stop offset="33.07%" stop-color="#3d4d6dab"/>
            <stop offset="33.86%" stop-color="#3c4c6ca9"/>
            <stop offset="34.65%" stop-color="#3b4b6aa7"/>
            <stop offset="35.43%" stop-color="#3a4968a5"/>
            <stop offset="36.22%" stop-color="#394866a3"/>
            <stop offset="37.01%" stop-color="#384764a1"/>
            <stop offset="37.8%" stop-color="#3645639f"/>
            <stop offset="38.58%" stop-color="#3544619d"/>
            <stop offset="39.37%" stop-color="#34435f9b"/>
            <stop offset="40.16%" stop-color="#33415d99"/>
            <stop offset="40.94%" stop-color="#32405c97"/>
            <stop offset="41.73%" stop-color="#313f5a95"/>
            <stop offset="42.52%" stop-color="#303e5893"/>
            <stop offset="43.31%" stop-color="#2f3c5691"/>
            <stop offset="44.09%" stop-color="#2e3b558f"/>
            <stop offset="44.88%" stop-color="#2d3a538d"/>
            <stop offset="45.67%" stop-color="#2c38518b"/>
            <stop offset="46.46%" stop-color="#2b374f89"/>
            <stop offset="47.24%" stop-color="#2a364e87"/>
            <stop offset="48.03%" stop-color="#29354c85"/>
            <stop offset="48.82%" stop-color="#28334a83"/>
            <stop offset="49.61%" stop-color="#27324981"/>
            <stop offset="50.39%" stop-color="#2631477e"/>
            <stop offset="51.18%" stop-color="#2530457c"/>
            <stop offset="51.97%" stop-color="#242e447a"/>
            <stop offset="52.76%" stop-color="#232d4278"/>
            <stop offset="53.54%" stop-color="#222c4076"/>
            <stop offset="54.33%" stop-color="#212b3f74"/>
            <stop offset="55.12%" stop-color="#20293d72"/>
            <stop offset="55.91%" stop-color="#1f283b70"/>
            <stop offset="56.69%" stop-color="#1e273a6e"/>
            <stop offset="57.48%" stop-color="#1d26386c"/>
            <stop offset="58.27%" stop-color="#1c25366a"/>
            <stop offset="59.06%" stop-color="#1b233568"/>
            <stop offset="59.84%" stop-color="#1a223366"/>
            <stop offset="60.63%" stop-color="#19213264"/>
            <stop offset="61.42%" stop-color="#18203062"/>
            <stop offset="62.2%" stop-color="#171f2e60"/>
            <stop offset="62.99%" stop-color="#161e2d5e"/>
            <stop offset="63.78%" stop-color="#151c2b5c"/>
            <stop offset="64.57%" stop-color="#141b2a5a"/>
            <stop offset="65.35%" stop-color="#131a2858"/>
            <stop offset="66.14%" stop-color="#12192756"/>
            <stop offset="66.93%" stop-color="#11182554"/>
            <stop offset="67.72%" stop-color="#10172452"/>
            <stop offset="68.5%" stop-color="#0f162250"/>
            <stop offset="69.29%" stop-color="#0e14214e"/>
            <stop offset="70.08%" stop-color="#0d131f4c"/>
            <stop offset="70.87%" stop-color="#0d121e4a"/>
            <stop offset="71.65%" stop-color="#0c111c48"/>
            <stop offset="72.44%" stop-color="#0b101b46"/>
            <stop offset="73.23%" stop-color="#0a0f1944"/>
            <stop offset="74.02%" stop-color="#090e1842"/>
            <stop offset="74.8%" stop-color="#080d1640"/>
            <stop offset="75.59%" stop-color="#070c153e"/>
            <stop offset="76.38%" stop-color="#070b143c"/>
            <stop offset="77.17%" stop-color="#060a123a"/>
            <stop offset="77.95%" stop-color="#06091138"/>
            <stop offset="78.74%" stop-color="#05080f36"/>
            <stop offset="79.53%" stop-color="#04070e34"/>
            <stop offset="80.31%" stop-color="#04060d32"/>
            <stop offset="81.1%" stop-color="#03060b30"/>
            <stop offset="81.89%" stop-color="#03050a2e"/>
            <stop offset="82.68%" stop-color="#0304092c"/>
            <stop offset="83.46%" stop-color="#0204082a"/>
            <stop offset="84.25%" stop-color="#02030728"/>
            <stop offset="85.04%" stop-color="#02030626"/>
            <stop offset="85.83%" stop-color="#01020524"/>
            <stop offset="86.61%" stop-color="#01020422"/>
            <stop offset="87.4%" stop-color="#01020320"/>
            <stop offset="88.19%" stop-color="#0101031e"/>
            <stop offset="88.98%" stop-color="#0101021c"/>
            <stop offset="89.76%" stop-color="#0101021a"/>
            <stop offset="90.55%" stop-color="#00010118"/>
            <stop offset="91.34%" stop-color="#00010116"/>
            <stop offset="92.13%" stop-color="#00000114"/>
            <stop offset="92.91%" stop-color="#00000112"/>
            <stop offset="93.7%" stop-color="#00000010"/>
            <stop offset="94.49%" stop-color="#0000000e"/>
            <stop offset="95.28%" stop-color="#0000000c"/>
            <stop offset="96.06%" stop-color="#0000000a"/>
            <stop offset="96.85%" stop-color="#00000008"/>
            <stop offset="97.64%" stop-color="#00000006"/>
            <stop offset="98.43%" stop-color="#00000004"/>
            <stop offset="99.21%" stop-color="#00000002"/>
            <stop offset="100%" stop-color="#00000000"/>
        </radialGradient>
    </defs>
    <defs id="gradient-refs">
        <radialGradient gradientTransform="matrix(595.2755905511812 0 0 841.8897637795276 0 0)" id="g3AE1CFB76816A0AC005BEF996C7B5801" href="#fAD08C02B11532FFE9262487462C89256" xlink:href="#fAD08C02B11532FFE9262487462C89256"/>
        <radialGradient gradientTransform="matrix(595.2755905511812 0 0 841.8897637795276 0 0)" id="g450BF73CF6358A4BBDB628BAAB80B86F" href="#fFD1DA1080904BCCB5086B572EABA96C8" xlink:href="#fFD1DA1080904BCCB5086B572EABA96C8"/>
    </defs>
</svg>
